<svg xmlns="http://www.w3.org/2000/svg" version="1.1" xmlns:xlink="http://www.w3.org/1999/xlink" xmlns:svgjs="http://svgjs.dev/svgjs" width="1024" height="1024"><svg width="1024" height="1024" viewBox="0 0 1024 1024" fill="none" xmlns="http://www.w3.org/2000/svg">
<g filter="url(#filter0_d_906_228)">
<path d="M302.324 109.287C183.513 120.964 87.5014 207.709 61.9229 326.519C57.6598 345.981 57.2891 411.596 61.1814 429.019C66.1859 452.188 76.3803 485.736 82.6822 500.379C86.2039 508.72 89.1695 515.949 89.1695 516.319C89.1695 516.69 81.5701 517.061 72.3025 517.061C52.0992 517.061 44.4998 520.026 40.0514 529.479C35.7883 538.191 37.6418 547.088 44.8705 553.019L50.6164 557.838H171.651C261.361 557.838 294.168 557.282 297.69 555.614C301.026 554.131 308.255 543.937 320.674 522.992L339.023 492.78L349.032 508.164C354.593 516.69 371.46 542.639 386.659 566.179C401.672 589.533 416.315 611.034 418.725 613.814C427.807 623.823 445.23 621.784 451.161 610.292C452.644 607.512 470.252 560.433 490.456 505.94C510.474 451.446 527.526 406.22 528.267 405.294C529.009 404.552 541.242 434.95 555.329 472.947C569.415 510.944 582.019 544.307 583.317 547.088C588.877 558.023 587.394 557.838 668.949 557.838H743.831L750.133 551.536C757.362 544.307 758.659 535.04 753.284 526.884C747.168 517.617 743.09 517.061 677.105 517.061H616.124L588.692 443.291C548.1 334.675 546.988 331.524 541.798 326.705C538.462 323.554 534.94 322.441 529.194 322.441C513.625 322.441 514.922 319.847 469.882 441.808C447.639 502.603 428.734 552.277 428.178 552.277C427.621 552.277 410.569 526.699 390.366 495.56C370.162 464.421 351.627 437.73 349.403 436.062C343.287 432.17 332.536 432.54 326.605 436.989C324.01 438.842 311.406 457.748 298.802 478.878L275.819 517.061L206.126 516.69L136.434 516.134L127.723 498.525C103.998 450.519 93.8033 392.134 101.032 345.054C108.446 296.307 130.318 253.491 166.09 217.532C231.149 151.733 328.088 132.085 415.388 166.746C442.635 177.497 466.36 193.622 493.236 219.757C520.668 246.447 523.263 246.447 549.583 219.942C559.962 209.562 574.791 196.773 582.39 191.583C622.055 164.151 666.725 150.065 713.99 150.065C825.942 150.065 920.101 228.283 941.045 338.752C944.567 357.658 945.123 397.324 941.972 415.117C938.636 434.023 927.515 472.947 921.213 487.775C891.186 558.394 809.816 649.587 689.709 747.082C651.341 778.221 578.127 832.158 537.35 859.034L521.224 869.599L492.309 849.952C397.038 785.079 319.376 722.615 252.279 657.001C235.412 640.505 219.657 625.677 217.062 624.008C210.946 619.745 201.122 620.116 194.82 624.565C188.703 629.013 184.626 639.393 186.479 646.436C188.889 656.445 261.917 725.766 320.859 773.958C365.343 810.472 418.91 850.323 471.92 886.281C511.215 912.972 517.332 916.308 524.746 914.64C531.233 913.157 571.825 886.837 612.602 857.551C806.48 718.723 928.997 590.645 965.141 489.073C972.37 468.684 982.008 428.277 984.603 408.815C992.017 348.576 975.15 280.923 939.192 227.171C925.661 206.782 896.932 176.57 877.284 162.112C794.988 101.317 686.002 91.1227 595.179 136.163C570.527 148.211 542.539 167.673 529.565 181.389C526.414 184.54 523.263 187.135 522.336 187.135C521.409 187.135 515.478 182.686 509.176 177.311C463.024 137.09 410.754 114.662 351.071 109.473C327.161 107.248 323.083 107.248 302.324 109.287Z" fill="#045FAE"></path>
</g>
<defs>
<filter id="SvgjsFilter1007" x="-4" y="0" width="1032" height="1032" filterUnits="userSpaceOnUse" color-interpolation-filters="sRGB">
<feFlood flood-opacity="0" result="BackgroundImageFix"></feFlood>
<feColorMatrix in="SourceAlpha" type="matrix" values="0 0 0 0 0 0 0 0 0 0 0 0 0 0 0 0 0 0 127 0" result="hardAlpha"></feColorMatrix>
<feOffset dy="4"></feOffset>
<feGaussianBlur stdDeviation="2"></feGaussianBlur>
<feComposite in2="hardAlpha" operator="out"></feComposite>
<feColorMatrix type="matrix" values="0 0 0 0 0 0 0 0 0 0 0 0 0 0 0 0 0 0 0.25 0"></feColorMatrix>
<feBlend mode="normal" in2="BackgroundImageFix" result="effect1_dropShadow_906_228"></feBlend>
<feBlend mode="normal" in="SourceGraphic" in2="effect1_dropShadow_906_228" result="shape"></feBlend>
</filter>
</defs>
</svg><style>@media (prefers-color-scheme: light) { :root { filter: none; } }
@media (prefers-color-scheme: dark) { :root { filter: none; } }
</style></svg>